<svg width="83" height="78" viewBox="0 0 83 78" fill="none" xmlns="http://www.w3.org/2000/svg">
<path d="M1 18C1 8.61115 8.61116 1 18 1H65C74.3888 1 82 8.61116 82 18V59.4902C82 68.879 74.3888 76.4902 65 76.4902H18C8.61116 76.4902 1 68.879 1 59.4902V18Z" fill="#2BC155"/>
<path d="M62 39C62 50.598 52.598 60 41 60C29.402 60 20 50.598 20 39C20 27.402 29.402 18 41 18C52.598 18 62 27.402 62 39Z" fill="white"/>
<path fill-rule="evenodd" clip-rule="evenodd" d="M34.5833 43.6667H45.6667C47.8666 43.6667 48.9665 43.6667 49.6499 42.9832C50.3333 42.2998 50.3333 41.1999 50.3333 39V33.1667C50.3333 30.9668 50.3333 29.8668 49.6499 29.1834C48.9665 28.5 47.8666 28.5 45.6667 28.5H36.3333C34.1334 28.5 33.0335 28.5 32.3501 29.1834C31.6667 29.8668 31.6667 30.9668 31.6667 33.1667V46.5833C31.6667 44.9725 32.9725 43.6667 34.5833 43.6667ZM37.5 32.3333C36.3954 32.3333 35.5 33.2288 35.5 34.3333C35.5 35.4379 36.3954 36.3333 37.5 36.3333L44.5 36.3333C45.6046 36.3333 46.5 35.4379 46.5 34.3333C46.5 33.2288 45.6046 32.3333 44.5 32.3333H37.5Z" fill="#222222"/>
<path d="M49.6499 42.9832L48.9428 42.2761L48.9428 42.2761L49.6499 42.9832ZM49.6499 29.1834L48.9428 29.8905L48.9428 29.8905L49.6499 29.1834ZM37.5 36.3333L37.5 35.3333H37.5V36.3333ZM44.5 36.3333L44.5 37.3333H44.5V36.3333ZM46.5 34.3333L47.5 34.3333V34.3333H46.5ZM44.5 32.3333L44.5 31.3333H44.5V32.3333ZM50.3333 50.5C50.8856 50.5 51.3333 50.0523 51.3333 49.5C51.3333 48.9477 50.8856 48.5 50.3333 48.5V50.5ZM38.6667 48.5C38.1144 48.5 37.6667 48.9477 37.6667 49.5C37.6667 50.0523 38.1144 50.5 38.6667 50.5V48.5ZM2 18C2 9.16344 9.16344 2 18 2V0C8.05887 0 0 8.05886 0 18H2ZM18 2H65V0H18V2ZM65 2C73.8366 2 81 9.16345 81 18H83C83 8.05888 74.9411 0 65 0V2ZM81 18V59.4902H83V18H81ZM81 59.4902C81 68.3267 73.8366 75.4902 65 75.4902V77.4902C74.9411 77.4902 83 69.4313 83 59.4902H81ZM65 75.4902H18V77.4902H65V75.4902ZM18 75.4902C9.16344 75.4902 2 68.3267 2 59.4902H0C0 69.4313 8.05887 77.4902 18 77.4902V75.4902ZM2 59.4902V18H0V59.4902H2ZM61 39C61 50.0457 52.0457 59 41 59V61C53.1503 61 63 51.1503 63 39H61ZM41 59C29.9543 59 21 50.0457 21 39H19C19 51.1503 28.8497 61 41 61V59ZM21 39C21 27.9543 29.9543 19 41 19V17C28.8497 17 19 26.8497 19 39H21ZM41 19C52.0457 19 61 27.9543 61 39H63C63 26.8497 53.1503 17 41 17V19ZM34.5833 44.6667H45.6667V42.6667H34.5833V44.6667ZM45.6667 44.6667C46.7383 44.6667 47.6427 44.6688 48.3602 44.5723C49.1065 44.472 49.7985 44.2488 50.357 43.6904L48.9428 42.2761C48.8179 42.4011 48.6182 42.5196 48.0937 42.5902C47.5404 42.6645 46.7949 42.6667 45.6667 42.6667V44.6667ZM50.357 43.6904C50.9155 43.1319 51.1387 42.4398 51.239 41.6935C51.3355 40.976 51.3333 40.0717 51.3333 39H49.3333C49.3333 40.1282 49.3312 40.8738 49.2568 41.4271C49.1863 41.9516 49.0677 42.1512 48.9428 42.2761L50.357 43.6904ZM51.3333 39V33.1667H49.3333V39H51.3333ZM51.3333 33.1667C51.3333 32.095 51.3355 31.1906 51.239 30.4731C51.1387 29.7268 50.9155 29.0348 50.357 28.4763L48.9428 29.8905C49.0677 30.0155 49.1863 30.2151 49.2568 30.7396C49.3312 31.2929 49.3333 32.0385 49.3333 33.1667H51.3333ZM50.357 28.4763C49.7985 27.9178 49.1065 27.6947 48.3602 27.5943C47.6427 27.4979 46.7383 27.5 45.6667 27.5V29.5C46.7949 29.5 47.5404 29.5021 48.0937 29.5765C48.6182 29.647 48.8179 29.7656 48.9428 29.8905L50.357 28.4763ZM45.6667 27.5H36.3333V29.5H45.6667V27.5ZM36.3333 27.5C35.2617 27.5 34.3573 27.4979 33.6398 27.5943C32.8935 27.6947 32.2015 27.9178 31.643 28.4763L33.0572 29.8905C33.1821 29.7656 33.3818 29.647 33.9063 29.5765C34.4596 29.5021 35.2051 29.5 36.3333 29.5V27.5ZM31.643 28.4763C31.0845 29.0348 30.8613 29.7268 30.761 30.4731C30.6645 31.1906 30.6667 32.095 30.6667 33.1667H32.6667C32.6667 32.0385 32.6688 31.2929 32.7432 30.7396C32.8137 30.2151 32.9323 30.0155 33.0572 29.8905L31.643 28.4763ZM30.6667 33.1667V46.5833H32.6667V33.1667H30.6667ZM32.6667 46.5833C32.6667 45.5248 33.5248 44.6667 34.5833 44.6667V42.6667C32.4202 42.6667 30.6667 44.4202 30.6667 46.5833H32.6667ZM37.5 31.3333C35.8431 31.3333 34.5 32.6765 34.5 34.3333H36.5C36.5 33.781 36.9477 33.3333 37.5 33.3333V31.3333ZM34.5 34.3333C34.5 35.9902 35.8431 37.3333 37.5 37.3333V35.3333C36.9477 35.3333 36.5 34.8856 36.5 34.3333H34.5ZM37.5 37.3333L44.5 37.3333L44.5 35.3333L37.5 35.3333L37.5 37.3333ZM44.5 37.3333C46.1569 37.3333 47.5 35.9902 47.5 34.3333L45.5 34.3333C45.5 34.8856 45.0523 35.3333 44.5 35.3333V37.3333ZM47.5 34.3333C47.5 32.6765 46.1569 31.3333 44.5 31.3333L44.5 33.3333C45.0523 33.3333 45.5 33.7811 45.5 34.3333H47.5ZM44.5 31.3333H37.5V33.3333H44.5V31.3333ZM50.3333 48.5H38.6667V50.5H50.3333V48.5Z" fill="#2BC155"/>
</svg>
