<svg width="81" height="76" viewBox="0 0 81 76" fill="none" xmlns="http://www.w3.org/2000/svg">
<path d="M0 17C0 7.61115 7.61116 0 17 0H64C73.3888 0 81 7.61116 81 17V58.4902C81 67.879 73.3888 75.4902 64 75.4902H17C7.61116 75.4902 0 67.879 0 58.4902V17Z" fill="#FBA556"/>
<path d="M61 38C61 49.598 51.598 59 40 59C28.402 59 19 49.598 19 38C19 26.402 28.402 17 40 17C51.598 17 61 26.402 61 38Z" fill="white"/>
<path d="M40.1877 39.7127C31.6423 39.7128 28.9581 46.3232 29.0005 49.5014H51.502C51.0782 46.1537 48.9594 39.7127 40.1877 39.7127Z" fill="#FBA556"/>
<path d="M46.1626 32.8478C46.1626 36.0775 43.5445 38.6957 40.3148 38.6957C37.0851 38.6957 34.4669 36.0775 34.4669 32.8478C34.4669 29.6182 37.0851 27 40.3148 27C43.5445 27 46.1626 29.6182 46.1626 32.8478Z" fill="#FBA556"/>
</svg>
