<svg width="81" height="76" viewBox="0 0 81 76" fill="none" xmlns="http://www.w3.org/2000/svg">
<path d="M0 17C0 7.61115 7.61116 0 17 0H64C73.3888 0 81 7.61116 81 17V58.4902C81 67.879 73.3888 75.4902 64 75.4902H17C7.61116 75.4902 0 67.879 0 58.4902V17Z" fill="#3BB2F4"/>
<path d="M61 38C61 49.598 51.598 59 40 59C28.402 59 19 49.598 19 38C19 26.402 28.402 17 40 17C51.598 17 61 26.402 61 38Z" fill="white"/>
<path d="M40.5139 33.0097L40.5743 33.9868L39.5688 33.8671C35.9087 33.4085 32.7112 31.853 29.9964 29.2407L28.6691 27.9445L28.3273 28.9017C27.6033 31.0354 28.0658 33.2888 29.5741 34.8044C30.3785 35.642 30.1975 35.7616 28.8099 35.2631C28.3273 35.1035 27.905 34.9839 27.8647 35.0437C27.724 35.1833 28.2066 36.998 28.5887 37.7159C29.1116 38.713 30.1774 39.6901 31.3438 40.2684L32.3292 40.7271L31.1628 40.747C30.0366 40.747 29.9964 40.767 30.1171 41.1857C30.5193 42.4819 32.1079 43.8579 33.8776 44.4562L35.1245 44.8749L34.0385 45.5131C32.4297 46.4304 30.5394 46.9489 28.649 46.9888C27.7441 47.0087 27 47.0885 27 47.1483C27 47.3477 29.4534 48.4644 30.8812 48.9031C35.1647 50.1994 40.2525 49.641 44.0734 47.4275C46.7883 45.8521 49.5031 42.7212 50.7701 39.6901C51.4538 38.0748 52.1375 35.1235 52.1375 33.7076C52.1375 32.7903 52.1979 32.6707 53.324 31.5739C53.9877 30.9357 54.6111 30.2378 54.7317 30.0384C54.9328 29.6595 54.9127 29.6595 53.8871 29.9985C52.1778 30.5967 51.9364 30.517 52.7811 29.6196C53.4045 28.9814 54.1485 27.8248 54.1485 27.4858C54.1485 27.426 53.8469 27.5257 53.505 27.7052C53.143 27.9046 52.3386 28.2037 51.7353 28.3832L50.6494 28.7222L49.664 28.0641C49.121 27.7052 48.3569 27.3063 47.9547 27.1867C46.929 26.9075 45.3605 26.9474 44.4354 27.2665C41.9216 28.1638 40.3329 30.4771 40.5139 33.0097Z" fill="#3BB2F4"/>
</svg>
